<svg xmlns="http://www.w3.org/2000/svg" width="48" height="48" viewBox="0 0 48 48">
  <g id="_1F601" data-name="1F601" transform="translate(-12 -12)">
    <g id="color">
      <circle id="Ellipse_28" data-name="Ellipse 28" cx="23" cy="23" r="23" transform="translate(13 13)" fill="#fcea2b"/>
      <path id="Path_701" data-name="Path 701" d="M50.6,41.64a11.555,11.555,0,0,1-.87,4.49c-12.49,3.03-25.43.34-27.49-.13a11.435,11.435,0,0,1-.83-4.36h.11s14.8,3.59,28.89.07Z" fill="#fff"/>
      <path id="Path_702" data-name="Path 702" d="M49.725,46.13c-1.79,4.27-6.35,7.23-13.69,7.23-7.41,0-12.03-3.03-13.8-7.36C24.3,46.47,37.235,49.16,49.725,46.13Z" fill="#fff"/>
    </g>
    <g id="line">
      <circle id="Ellipse_29" data-name="Ellipse 29" cx="23" cy="23" r="23" transform="translate(13 13)" fill="none" stroke="#000" stroke-linecap="round" stroke-linejoin="round" stroke-width="2"/>
      <path id="Path_703" data-name="Path 703" d="M50.6,41.64a11.555,11.555,0,0,1-.87,4.49c-12.49,3.03-25.43.34-27.49-.13a11.435,11.435,0,0,1-.83-4.36h.11s14.8,3.59,28.89.07Z" fill="none" stroke="#000" stroke-linecap="round" stroke-linejoin="round" stroke-width="2"/>
      <path id="Path_704" data-name="Path 704" d="M49.725,46.13c-1.79,4.27-6.35,7.23-13.69,7.23-7.41,0-12.03-3.03-13.8-7.36C24.3,46.47,37.235,49.16,49.725,46.13Z" fill="none" stroke="#000" stroke-linecap="round" stroke-linejoin="round" stroke-width="2"/>
      <path id="Path_705" data-name="Path 705" d="M31.694,32.4a4.726,4.726,0,0,0-8.638,0" fill="none" stroke="#000" stroke-linecap="round" stroke-width="2"/>
      <path id="Path_706" data-name="Path 706" d="M48.944,32.4a4.726,4.726,0,0,0-8.638,0" fill="none" stroke="#000" stroke-linecap="round" stroke-width="2"/>
    </g>
  </g>
</svg>
