<svg xmlns="http://www.w3.org/2000/svg" width="48" height="48" viewBox="0 0 48 48">
  <g id="_1F600" data-name="1F600" transform="translate(-12 -12)">
    <g id="color">
      <circle id="Ellipse_26" data-name="Ellipse 26" cx="23" cy="23" r="23" transform="translate(13 13)" fill="#fcea2b"/>
      <path id="Path_695" data-name="Path 695" d="M50.6,41.64a11.557,11.557,0,0,1-.87,4.49c-12.49,3.03-25.43.34-27.49-.13a11.435,11.435,0,0,1-.83-4.36h.11s14.8,3.59,28.89.07Z" fill="#fff"/>
      <path id="Path_696" data-name="Path 696" d="M49.725,46.13c-1.79,4.27-6.35,7.23-13.69,7.23-7.41,0-12.03-3.03-13.8-7.36C24.3,46.47,37.235,49.16,49.725,46.13Z" fill="#ea5a47"/>
    </g>
    <g id="line">
      <circle id="Ellipse_27" data-name="Ellipse 27" cx="23" cy="23" r="23" transform="translate(13 13)" fill="none" stroke="#000" stroke-linecap="round" stroke-linejoin="round" stroke-width="2"/>
      <path id="Path_697" data-name="Path 697" d="M50.6,41.64a11.557,11.557,0,0,1-.87,4.49c-12.49,3.03-25.43.34-27.49-.13a11.435,11.435,0,0,1-.83-4.36h.11s14.8,3.59,28.89.07Z" fill="none" stroke="#000" stroke-linecap="round" stroke-linejoin="round" stroke-width="2"/>
      <path id="Path_698" data-name="Path 698" d="M49.725,46.13c-1.79,4.27-6.35,7.23-13.69,7.23-7.41,0-12.03-3.03-13.8-7.36C24.3,46.47,37.235,49.16,49.725,46.13Z" fill="none" stroke="#000" stroke-linecap="round" stroke-linejoin="round" stroke-width="2"/>
      <path id="Path_699" data-name="Path 699" d="M30,31a3,3,0,1,1-3-3,3,3,0,0,1,3,3"/>
      <path id="Path_700" data-name="Path 700" d="M48,31a3,3,0,1,1-3-3,3,3,0,0,1,3,3"/>
    </g>
  </g>
</svg>
