<svg xmlns="http://www.w3.org/2000/svg" width="48.038" height="48.019" viewBox="0 0 48.038 48.019">
  <g id="_1F625" data-name="1F625" transform="translate(-12.247 -12)">
    <g id="color">
      <path id="Path_711" data-name="Path 711" d="M12.286,36a24,24,0,1,0,24-24,24,24,0,0,0-24,24Z" fill="none"/>
      <path id="Path_712" data-name="Path 712" d="M19.683,55.2q-.248,0-.5-.02a6.068,6.068,0,0,1-5.561-6.52c.389-4.867,5.224-9.021,5.429-9.2a1.906,1.906,0,0,1,1.42-.459,1.941,1.941,0,0,1,1.331.679c.44.52,4.28,5.194,3.9,9.935a6.02,6.02,0,0,1-2.11,4.133h0A6.006,6.006,0,0,1,19.683,55.2Z" fill="#92d3f5"/>
    </g>
    <g id="line">
      <path id="Path_713" data-name="Path 713" d="M48.285,35.174a3,3,0,1,1-3-3,3,3,0,0,1,3,3Z"/>
      <path id="Path_714" data-name="Path 714" d="M30.285,35.174a3,3,0,1,1-3-3,3,3,0,0,1,3,3Z"/>
      <path id="Path_715" data-name="Path 715" d="M25.451,56.293a22.964,22.964,0,1,0-11.377-14.3" fill="none" stroke="#000" stroke-linecap="round" stroke-linejoin="round" stroke-width="2"/>
      <path id="Path_716" data-name="Path 716" d="M22.951,53a5.026,5.026,0,0,0,1.762-3.45c.353-4.436-3.5-9.014-3.667-9.207a.952.952,0,0,0-1.343-.107c-.193.165-4.724,4.075-5.078,8.512h0a5.061,5.061,0,0,0,8.327,4.251Z" fill="none" stroke="#000" stroke-width="2"/>
      <path id="Path_717" data-name="Path 717" d="M42.786,46a12.449,12.449,0,0,0-6.842-1.853A10.389,10.389,0,0,0,29.786,46" fill="none" stroke="#000" stroke-linecap="round" stroke-linejoin="round" stroke-width="2"/>
      <path id="Path_718" data-name="Path 718" d="M51.422,26.3a7.4,7.4,0,0,1-5.3-.324,7.4,7.4,0,0,1-4.11-3.411" fill="none" stroke="#000" stroke-linecap="round" stroke-linejoin="round" stroke-width="2"/>
      <path id="Path_719" data-name="Path 719" d="M21.185,26.287A8.44,8.44,0,0,0,30.6,22.569" fill="none" stroke="#000" stroke-linecap="round" stroke-linejoin="round" stroke-width="2"/>
    </g>
  </g>
</svg>
