<svg xmlns="http://www.w3.org/2000/svg" width="48" height="48" viewBox="0 0 48 48">
  <g id="_1F620" data-name="1F620" transform="translate(-12 -12)">
    <g id="color">
      <path id="Path_707" data-name="Path 707" d="M36,13A23,23,0,1,0,59,36,23.026,23.026,0,0,0,36,13Z" fill="#fcea2b"/>
    </g>
    <g id="line">
      <circle id="Ellipse_30" data-name="Ellipse 30" cx="23" cy="23" r="23" transform="translate(13 13)" fill="none" stroke="#000" stroke-width="2"/>
      <path id="Path_708" data-name="Path 708" d="M30,32.925a3,3,0,1,1-3-3,3,3,0,0,1,3,3"/>
      <path id="Path_709" data-name="Path 709" d="M48,32.925a3,3,0,1,1-3-3,3,3,0,0,1,3,3"/>
      <line id="Line_46" data-name="Line 46" x2="7" y2="4" transform="translate(23 24)" fill="none" stroke="#000" stroke-linecap="round" stroke-linejoin="round" stroke-width="2"/>
      <line id="Line_47" data-name="Line 47" x1="7" y2="4" transform="translate(42 24)" fill="none" stroke="#000" stroke-linecap="round" stroke-linejoin="round" stroke-width="2"/>
      <path id="Path_710" data-name="Path 710" d="M29.5,43a17.625,17.625,0,0,1,6.842-1A16.364,16.364,0,0,1,42.5,43" fill="none" stroke="#000" stroke-linecap="round" stroke-linejoin="round" stroke-width="2"/>
    </g>
  </g>
</svg>
