<svg xmlns="http://www.w3.org/2000/svg" width="48" height="48" viewBox="0 0 48 48">
  <g id="_1F627" data-name="1F627" transform="translate(-12 -12)">
    <g id="color">
      <path id="Path_720" data-name="Path 720" d="M36,13A23,23,0,1,0,59,36,23.026,23.026,0,0,0,36,13Z" fill="none"/>
      <path id="Path_721" data-name="Path 721" d="M28,46a25.2,25.2,0,0,1,0-3c1.369-.731,3.965-1,8-1,4,0,6.652.279,8,1,.088.057,0,3,0,3Z" fill="#fff"/>
    </g>
    <g id="line">
      <circle id="Ellipse_31" data-name="Ellipse 31" cx="23" cy="23" r="23" transform="translate(13 13)" fill="none" stroke="#000" stroke-width="2"/>
      <path id="Path_722" data-name="Path 722" d="M30,30.925a3,3,0,1,1-3-3,3,3,0,0,1,3,3"/>
      <path id="Path_723" data-name="Path 723" d="M48,30.925a3,3,0,1,1-3-3,3,3,0,0,1,3,3"/>
      <path id="Path_724" data-name="Path 724" d="M28,46a25.2,25.2,0,0,1,0-3c1.369-.731,3.965-1,8-1,4,0,6.652.279,8,1,.088.057,0,3,0,3Z" fill="none" stroke="#000" stroke-linecap="round" stroke-linejoin="round" stroke-width="2"/>
      <path id="Path_725" data-name="Path 725" d="M23.148,24.25a7.173,7.173,0,0,0,5.164.333,7.078,7.078,0,0,0,3.54-2.624" fill="none" stroke="#000" stroke-linecap="round" stroke-linejoin="round" stroke-width="2"/>
      <path id="Path_726" data-name="Path 726" d="M48.852,24.25a7.173,7.173,0,0,1-5.164.333,7.078,7.078,0,0,1-3.54-2.624" fill="none" stroke="#000" stroke-linecap="round" stroke-linejoin="round" stroke-width="2"/>
    </g>
  </g>
</svg>
