<svg xmlns="http://www.w3.org/2000/svg" width="48" height="48" viewBox="0 0 48 48">
  <g id="_1F979" data-name="1F979" transform="translate(-11.977 -12)">
    <g id="line-supplement">
      <path id="Path_727" data-name="Path 727" d="M34.527,32.43A7.5,7.5,0,1,0,20.68,36.407a.849.849,0,0,1,.4-.953,2.218,2.218,0,0,1,1.2-.261,5.483,5.483,0,0,1,4.013-8.209,5.38,5.38,0,1,0,5.8,8.218,3.13,3.13,0,0,1,.733.078h0a.878.878,0,0,1,.586.543.859.859,0,0,1,.006.513,7.444,7.444,0,0,0,1.11-3.907Zm-6.134,1.014a3,3,0,1,1,3-3,3,3,0,0,1-3,3Z"/>
      <path id="Path_728" data-name="Path 728" d="M51.567,32.43A7.5,7.5,0,1,0,37.7,36.369a.885.885,0,0,1,.006-.352.87.87,0,0,1,.413-.562,2.208,2.208,0,0,1,1.206-.259A5.482,5.482,0,0,1,43.239,27,5.382,5.382,0,1,0,49.1,35.2a3.2,3.2,0,0,1,.754.078.877.877,0,0,1,.587.543.861.861,0,0,1-.01.553,7.445,7.445,0,0,0,1.135-3.948ZM45.4,33.444a3,3,0,1,1,3-3,3,3,0,0,1-3,3Z"/>
    </g>
    <g id="color">
      <circle id="Ellipse_32" data-name="Ellipse 32" cx="23" cy="23" r="23" transform="translate(12.977 13)" fill="none"/>
      <circle id="Ellipse_33" data-name="Ellipse 33" cx="6.5" cy="6.5" r="6.5" transform="translate(20.477 25.93)" fill="#fff"/>
      <circle id="Ellipse_34" data-name="Ellipse 34" cx="6.5" cy="6.5" r="6.5" transform="translate(37.567 25.93)" fill="#fff"/>
      <g id="Group_24" data-name="Group 24">
        <path id="Path_729" data-name="Path 729" d="M32.819,35.3a3.864,3.864,0,0,0-1.853.047,5.316,5.316,0,0,0-1.025.515c-.329.2-.738.446-1.152.652a4.3,4.3,0,0,1-3.7-.209c-.144-.076-.285-.161-.423-.243l-.044-.026a6.782,6.782,0,0,0-1.07-.555,3.046,3.046,0,0,0-2.46-.009.853.853,0,0,0-.278,1.216A7.359,7.359,0,0,0,27,39.96,7.532,7.532,0,0,0,33.3,36.6a.855.855,0,0,0-.477-1.3Z" fill="#92d3f5"/>
        <path id="Path_730" data-name="Path 730" d="M50.423,35.832a.857.857,0,0,0-.573-.53A3.864,3.864,0,0,0,48,35.348a5.31,5.31,0,0,0-1.025.515c-.329.2-.738.446-1.152.652a4.3,4.3,0,0,1-3.7-.209c-.144-.076-.285-.161-.423-.243l-.044-.026a6.79,6.79,0,0,0-1.07-.555,3.051,3.051,0,0,0-2.46-.009.853.853,0,0,0-.278,1.216,7.359,7.359,0,0,0,6.188,3.272,7.509,7.509,0,0,0,6.291-3.355.868.868,0,0,0,.1-.775Z" fill="#92d3f5"/>
      </g>
      <path id="Path_731" data-name="Path 731" d="M34.527,32.43A7.5,7.5,0,1,0,20.68,36.407a.849.849,0,0,1,.4-.953,2.218,2.218,0,0,1,1.2-.261,5.483,5.483,0,0,1,4.013-8.209,5.38,5.38,0,1,0,5.8,8.218,3.13,3.13,0,0,1,.733.078h0a.878.878,0,0,1,.586.543.859.859,0,0,1,.006.513,7.444,7.444,0,0,0,1.11-3.907Zm-6.134,1.014a3,3,0,1,1,3-3,3,3,0,0,1-3,3Z"/>
      <path id="Path_732" data-name="Path 732" d="M51.567,32.43A7.5,7.5,0,1,0,37.7,36.369a.885.885,0,0,1,.006-.352.87.87,0,0,1,.413-.562,2.208,2.208,0,0,1,1.206-.259A5.482,5.482,0,0,1,43.239,27,5.382,5.382,0,1,0,49.1,35.2a3.2,3.2,0,0,1,.754.078.877.877,0,0,1,.587.543.861.861,0,0,1-.01.553,7.445,7.445,0,0,0,1.135-3.948ZM45.4,33.444a3,3,0,1,1,3-3,3,3,0,0,1-3,3Z"/>
    </g>
    <g id="line">
      <circle id="Ellipse_35" data-name="Ellipse 35" cx="23" cy="23" r="23" transform="translate(12.977 13)" fill="none" stroke="#000" stroke-width="2"/>
      <path id="Path_733" data-name="Path 733" d="M30.17,19.045a7.177,7.177,0,0,1-3.936,3.36,7.08,7.08,0,0,1-4.406.019" fill="none" stroke="#000" stroke-linecap="round" stroke-linejoin="round" stroke-width="2"/>
      <path id="Path_734" data-name="Path 734" d="M50.267,21.7a7.172,7.172,0,0,1-5.146.541,7.085,7.085,0,0,1-3.643-2.479" fill="none" stroke="#000" stroke-linecap="round" stroke-linejoin="round" stroke-width="2"/>
      <path id="Path_735" data-name="Path 735" d="M42.477,46.5a8.7,8.7,0,0,1-13,0" fill="none" stroke="#000" stroke-linecap="round" stroke-linejoin="round" stroke-width="2"/>
    </g>
  </g>
</svg>
