<svg xmlns="http://www.w3.org/2000/svg" xmlns:xlink="http://www.w3.org/1999/xlink" width="1919" height="1015.922" viewBox="0 0 1919 1015.922">
  <defs>
    <linearGradient id="linear-gradient" y1="0.5" x2="1" y2="0.5" gradientUnits="objectBoundingBox">
      <stop offset="0" stop-color="#f60" stop-opacity="0.4"/>
      <stop offset="0.01" stop-color="#f60" stop-opacity="0.361"/>
      <stop offset="0.03" stop-color="#f60" stop-opacity="0.239"/>
      <stop offset="0.03" stop-color="#f60" stop-opacity="0.2"/>
      <stop offset="0.27" stop-color="#f60" stop-opacity="0.149"/>
      <stop offset="0.45" stop-color="#f60" stop-opacity="0.102"/>
      <stop offset="0.84" stop-color="#ff9500" stop-opacity="0.239"/>
      <stop offset="1" stop-color="#fa0" stop-opacity="0.302"/>
    </linearGradient>
    <radialGradient id="radial-gradient" cx="0.444" cy="0.652" r="0.495" gradientTransform="matrix(0.726, -0.6, -0.544, -0.8, 19.075, 60.139)" gradientUnits="objectBoundingBox">
      <stop offset="0" stop-color="#fa0"/>
      <stop offset="0.15" stop-color="#fa0" stop-opacity="0.961"/>
      <stop offset="0.42" stop-color="#fa0" stop-opacity="0.839"/>
      <stop offset="0.77" stop-color="#fa0" stop-opacity="0.639"/>
      <stop offset="1" stop-color="#fa0" stop-opacity="0.502"/>
    </radialGradient>
    <linearGradient id="linear-gradient-2" x1="1.063" y1="14.127" x2="1.774" y2="15.21" xlink:href="#linear-gradient"/>
    <linearGradient id="linear-gradient-6" x1="8.702" y1="22.848" x2="10.046" y2="22.848" xlink:href="#linear-gradient"/>
    <linearGradient id="linear-gradient-7" x1="-5.076" y1="34.976" x2="-4.042" y2="34.976" xlink:href="#linear-gradient"/>
    <linearGradient id="linear-gradient-8" x1="-4.827" y1="42.27" x2="-3.827" y2="42.27" xlink:href="#linear-gradient"/>
  </defs>
  <g id="Group_30" data-name="Group 30" transform="translate(-0.5 -0.5)">
    <path id="Intersection_2" data-name="Intersection 2" d="M-4404.5,193.483V86.516A54.481,54.481,0,0,1-4397,86a54,54,0,0,1,54,54,54,54,0,0,1-54,54A54.484,54.484,0,0,1-4404.5,193.483Z" transform="translate(4405 575)" fill="url(#linear-gradient)"/>
    <path id="Intersection_3" data-name="Intersection 3" d="M-4384.364,288.566a150,150,0,0,1-38.136-24.017V184.43c9.618-4.507,20.685-8.424,31.606-12.954a325.733,325.733,0,0,0,78.45-42.28,326.105,326.105,0,0,0,63.229-62.8c18.041-21.991,32.94-45.81,54.31-45.39,19.251-.41,49.19,32,55.89,85.56a170.652,170.652,0,0,1,1.515,17.446v13.417c-1.683,47.172-21.139,101.82-68.574,135.137-30.248,23.665-65.881,32.857-99.758,32.856C-4334.784,305.42-4362.457,298.7-4384.364,288.566Z" transform="translate(4423 711)" fill="url(#radial-gradient)"/>
    <path id="Intersection_4" data-name="Intersection 4" d="M-4336.015,475.615c-104.54-132.211-111-269.621-68.12-311.55,45.681-48.44,131.121-29.411,219.191-21.36,89.7,11.139,182.179,11.31,277.3-3.08,95-15.379,183-43.819,265-81.819,9.46-4.017,18.839-8.163,28.12-12.3h95.025V528.2c-75.077,80.964-177.241,145.561-301.944,161.8a462.882,462.882,0,0,1-83.5,7.584C-4088.933,697.576-4249.628,588.578-4336.015,475.615Z" transform="translate(5439 -45)" fill="url(#linear-gradient-2)"/>
    <g id="BCK_ASSET" data-name="BCK ASSET">
      <g id="Group_29" data-name="Group 29">
        <g id="CIRCLE" transform="translate(329 398)">
          <g id="Layer_2" data-name="Layer 2">
            <circle id="Ellipse_1" data-name="Ellipse 1" cx="54" cy="54" r="54" fill="url(#linear-gradient)"/>
          </g>
        </g>
        <g id="CIRCLE-2" data-name="CIRCLE" transform="translate(540 388)">
          <g id="Layer_2-2" data-name="Layer 2">
            <circle id="Ellipse_1-2" data-name="Ellipse 1" cx="54" cy="54" r="54" fill="url(#linear-gradient)"/>
          </g>
        </g>
        <g id="CIRCLE-3" data-name="CIRCLE" transform="translate(281 220)">
          <g id="Layer_2-3" data-name="Layer 2">
            <circle id="Ellipse_1-3" data-name="Ellipse 1" cx="54" cy="54" r="54" fill="url(#linear-gradient)"/>
          </g>
        </g>
        <path id="Intersection_1" data-name="Intersection 1" d="M-4293,422.394c-23.881-13.671-24.591-49.841-30-86.061a419.688,419.688,0,0,0-28.311-111.18A419.523,419.523,0,0,0-4371.7,183.5h246.6c11.757,69.493-15.046,138.41-49.649,181.333-33.454,42.834-74.031,61.932-100.186,61.932C-4282.235,426.764-4288.415,425.274-4293,422.394Z" transform="translate(4431 -183)" fill="url(#linear-gradient-6)"/>
        <g id="ASSET" transform="translate(12.002 252.003)">
          <g id="Layer_1" data-name="Layer 1">
            <path id="Path_11" data-name="Path 11" d="M351.36,127.83c-11.57-19.71-41.62-20-71.75-24.11A349,349,0,0,1,187,81.22a348.42,348.42,0,0,1-82.41-47.84C80,15.52,58.12-5.09,36.13,1.13,16.11,5.91-6.1,47.49,1.54,104.76c6.54,55.63,42.93,127,114.31,153.52,69.92,30.23,145.55,3.93,188.76-31.71C349.76,190.52,362.5,145.14,351.36,127.83Z" fill="url(#linear-gradient-7)"/>
          </g>
        </g>
        <g id="ASSET-2" data-name="ASSET" transform="translate(309.001 523.999)">
          <g id="Layer_1-2" data-name="Layer 1">
            <path id="Path_10" data-name="Path 10" d="M354.26,14c-17.76-14.38-46-4.06-75.64,2.66A348.61,348.61,0,0,1,184,28.15a348.669,348.669,0,0,1-94-15.8C60.73,4.28,33-7.32,14.61,6.23-2.45,17.75-8.62,64.48,18.67,115.41c25.68,49.78,84.82,103.75,161,103.52,76.08,3.71,137.63-47.5,165.56-96.06C374.81,73.25,370.78,26.29,354.26,14Z" fill="url(#linear-gradient-8)"/>
          </g>
        </g>
      </g>
    </g>
  </g>
</svg>
