<svg xmlns="http://www.w3.org/2000/svg" width="29.25" height="21.375" viewBox="0 0 29.25 21.375">
  <g id="Icon_ionic-ios-mail-unread" data-name="Icon ionic-ios-mail-unread" transform="translate(-3.375 -7.313)">
    <path id="Path_683" data-name="Path 683" d="M32.625,10.688A3.375,3.375,0,1,1,29.25,7.313,3.375,3.375,0,0,1,32.625,10.688Z" fill="#f60"/>
    <g id="Group_11" data-name="Group 11">
      <path id="Path_684" data-name="Path 684" d="M29.25,15.363a4.685,4.685,0,0,1-1.1-.134l-3.333,3.4a.136.136,0,0,0,0,.2l5.295,5.639a.912.912,0,0,1,0,1.294.917.917,0,0,1-1.294,0l-5.273-5.618a.144.144,0,0,0-.2,0l-1.287,1.308a5.661,5.661,0,0,1-4.036,1.7A5.775,5.775,0,0,1,13.9,21.4l-1.238-1.259a.144.144,0,0,0-.2,0L7.186,25.755a.917.917,0,0,1-1.294,0,.912.912,0,0,1,0-1.294l5.295-5.639a.15.15,0,0,0,0-.2L3.614,10.92a.139.139,0,0,0-.239.1v15.42a2.257,2.257,0,0,0,2.25,2.25h24.75a2.257,2.257,0,0,0,2.25-2.25V13.922A4.665,4.665,0,0,1,29.25,15.363Z" fill="#f60"/>
      <path id="Path_685" data-name="Path 685" d="M24.574,10.688a4.673,4.673,0,0,1,.577-2.25H5.618a2.2,2.2,0,0,0-1.392.492L15.258,20.159a3.854,3.854,0,0,0,5.5,0l5.66-5.759A4.652,4.652,0,0,1,24.574,10.688Z" fill="#f60"/>
    </g>
  </g>
</svg>
