<svg xmlns="http://www.w3.org/2000/svg" width="20" height="20" viewBox="0 0 20 20">
  <path id="Icon_awesome-medal" data-name="Icon awesome-medal" d="M8.74,5.107,6.04.607A1.25,1.25,0,0,0,4.968,0H.626A.625.625,0,0,0,.114.984L4.461,7.193A8.084,8.084,0,0,1,8.74,5.107ZM19.374,0H15.032A1.25,1.25,0,0,0,13.96.607l-2.7,4.5a8.087,8.087,0,0,1,4.28,2.085L19.886.984A.625.625,0,0,0,19.374,0ZM10,6.25a6.875,6.875,0,1,0,6.875,6.875A6.875,6.875,0,0,0,10,6.25Zm3.614,6.143-1.482,1.444.35,2.04a.449.449,0,0,1-.65.472L10,15.386l-1.832.963a.448.448,0,0,1-.65-.472l.35-2.04L6.386,12.393a.449.449,0,0,1,.248-.765l2.048-.3L9.6,9.473a.449.449,0,0,1,.805,0l.915,1.856,2.048.3a.449.449,0,0,1,.248.765Z" fill="#fa0"/>
</svg>
